<svg xmlns="http://www.w3.org/2000/svg" viewBox="0 0 32 32" fill="none">
  <rect width="32" height="32" rx="8" fill="#7C5CFC"/>
  <path d="M9 9h6l2 3h7a1 1 0 0 1 1 1v8a1 1 0 0 1-1 1H9a1 1 0 0 1-1-1V10a1 1 0 0 1 1-1z" fill="#fff" opacity="0.9"/>
  <path d="M6 19h6l2-3h7a1 1 0 0 1 1 1v3a1 1 0 0 1-1 1H6a1 1 0 0 1-1-1v-3a1 1 0 0 1 1-1z" fill="#fff"/>
  <circle cx="11" cy="16" r="1.5" fill="#FFD43B"/>
  <circle cx="15" cy="16" r="1.5" fill="#51CF66"/>
  <circle cx="19" cy="16" r="1.5" fill="#FF6B6B"/>
</svg>
